<svg width="380" height="380" viewBox="0 0 380 380" fill="none" xmlns="http://www.w3.org/2000/svg">
<path d="M317.444 58.4364H69.844V249.424H317.444V58.4364Z" fill="#E6E6E6"/>
<path opacity="0.1" d="M298.976 72.6788H88.312V235.174H298.976V72.6788Z" fill="#000001"/>
<path d="M256.926 156.514H246.833V235.182H256.926V156.514Z" fill="#E6E6E6"/>
<path opacity="0.1" d="M236.444 58.4364H303.187V59.964L269.815 116.812H252.905L236.444 58.4364Z" fill="#000001"/>
<path d="M149.913 124.059L143.384 131.756L195.63 176.079L202.159 168.383L149.913 124.059Z" fill="#E6E6E6"/>
<path d="M254.606 152.268L249.163 160.767L300.463 193.626L305.907 185.127L254.606 152.268Z" fill="#E6E6E6"/>
<path d="M187.484 235.699H177.392V191.414L208.825 151.468H246.833V104.249H256.926V161.561H213.727L187.484 194.91V235.699Z" fill="white"/>
<path d="M151.696 132.962H83.98V122.869H141.603V67.7236H151.696V132.962Z" fill="#E6E6E6"/>
<path d="M210.915 106.651H146.65V96.558H200.822V67.7236H210.915V106.651Z" fill="#E6E6E6"/>
<path opacity="0.1" d="M150.716 169.009L165.855 176.776L156.127 195.844L165.855 199.933L140.988 249.424H95.5472L100.252 206.667L107.365 194.56L125.126 169.009H143.511H150.716Z" fill="#000001"/>
<path opacity="0.02" d="M190 356.075C279.61 356.075 352.252 346.844 352.252 335.456C352.252 324.069 279.61 314.838 190 314.838C100.39 314.838 27.7476 324.069 27.7476 335.456C27.7476 346.844 100.39 356.075 190 356.075Z" fill="#000001"/>
<path opacity="0.58" d="M303.65 312.17C303.65 312.17 290.86 308.735 288.032 296.856C288.032 296.856 307.808 292.775 308.454 313.196L303.643 312.162L303.65 312.17Z" fill="#5FDD25"/>
<path opacity="0.73" d="M305.216 310.893C305.216 310.893 296.233 296.818 304.03 283.594C304.03 283.594 319.116 293.086 312.504 310.893H305.216Z" fill="#5FDD25"/>
<path d="M307.511 310.893C307.511 310.893 312.162 295.974 326.405 293.094C326.405 293.094 329.118 302.761 317.247 310.893H307.504H307.511Z" fill="#5FDD25"/>
<path d="M298.247 310.597L300.914 328.305H317.224L319.55 310.597H298.247Z" fill="#24285B"/>
<path d="M101.954 198.497L124.389 170.536L129.23 174.785L110.109 206.743L101.954 198.497Z" fill="#5FDD25"/>
<path d="M64.8052 152.448L68.9472 164.867L59.1204 171.106L55.5788 149.583L64.8052 152.448Z" fill="#F4A28C"/>
<path d="M52.212 137.583C54.3248 132.422 61.1876 131.366 65.0028 135.44C69.1828 139.901 74.2292 147.007 68.5216 150.868C59.7892 156.78 51.7788 145.73 51.7788 145.73C51.7788 145.73 50.6084 141.497 52.212 137.583Z" fill="#F4A28C"/>
<path d="M58.596 145.198C58.596 145.198 56.3616 143.328 55.3432 145.981C54.3324 148.641 58.2844 149.925 59.4624 148.58C60.6404 147.235 58.596 145.19 58.596 145.19V145.198Z" fill="#F4A28C"/>
<path d="M47.652 177.202C50.616 170.536 56.4148 165.543 63.4068 163.446C76.76 159.433 101.346 163.826 108.84 176.312C119.1 193.412 104.082 247.73 104.082 247.73L59.2116 251.21C59.2116 251.21 34.5268 206.69 47.652 177.194V177.202Z" fill="#5FDD25"/>
<path d="M104.074 247.73L98.1692 324.877H88.844L80.5144 264.936L59.8804 251.218L104.074 247.73Z" fill="#24285B"/>
<path d="M59.8804 251.218L47.006 324.877H57.0076L78.6144 263.682L59.8804 251.218Z" fill="#24285B"/>
<path opacity="0.08" d="M67.2828 162.275C67.2828 162.275 46.2916 229.877 106.902 234.361L104.074 247.737L59.204 251.218C59.204 251.218 43.396 226.389 44.0648 191.52C44.0648 191.52 44.4448 174.276 56.582 166.653C56.582 166.653 61.218 163.24 67.2828 162.268V162.275Z" fill="#000001"/>
<path d="M49.3544 324.718L43.3276 329.156C42.3016 329.916 42.8336 331.55 44.1104 331.55H54.2108C54.9404 331.55 55.5332 330.957 55.5332 330.228V324.718H49.3544Z" fill="#5FDD25"/>
<path d="M97.0063 324.718L102.676 329.156C103.679 329.939 103.124 331.55 101.848 331.55H94.6579C92.5375 331.55 90.8199 329.832 90.8199 327.712V324.718H96.9987H97.0063Z" fill="#5FDD25"/>
<path d="M85.5836 163.088C85.5836 163.088 77.8772 174.017 85.5836 187.021C90.478 195.282 104.713 211.364 114.448 221.996C119.183 227.172 127.596 226.191 131.016 220.066L151.924 183.206L144.826 178.661L125.666 206.758C125.666 206.758 112.556 163.643 85.5836 163.104V163.088Z" fill="#5FDD25"/>
<path opacity="0.2" d="M85.5836 163.088C85.5836 163.088 77.8772 174.017 85.5836 187.021C90.478 195.282 104.713 211.364 114.448 221.996C119.183 227.172 127.596 226.191 131.016 220.066L151.924 183.206L144.826 178.661L125.666 206.758C125.666 206.758 112.556 163.643 85.5836 163.104V163.088Z" fill="white"/>
<path d="M149.446 181.617C149.446 181.617 161.318 177.255 156.476 170.544C151.635 163.826 144.826 178.653 144.826 178.653L149.446 181.617Z" fill="#F4A28C"/>
<path d="M160.242 162.103L149.54 157.309L142.55 172.915L153.252 177.709L160.242 162.103Z" fill="#FFD200"/>
<path d="M42.5372 177.901C49.362 174.602 60.4048 170.491 71.1664 171.775C75.62 172.307 79.3972 175.302 80.94 179.512C83.7976 187.31 88.2588 201.56 88.008 214.062C87.9092 219.009 84.8616 223.432 80.218 225.142C74.5104 227.248 65.3828 229.923 53.4812 231.146C47.7204 231.739 42.3548 228.137 40.7208 222.574C38.5776 215.285 36.1304 203.855 35.7884 188.951C35.682 184.27 38.3192 179.938 42.5372 177.901Z" fill="#24285B"/>
<path d="M54.5376 195.533C56.439 195.533 57.9804 193.991 57.9804 192.09C57.9804 190.189 56.439 188.647 54.5376 188.647C52.6362 188.647 51.0948 190.189 51.0948 192.09C51.0948 193.991 52.6362 195.533 54.5376 195.533Z" fill="white"/>
<path d="M71.1664 171.768C71.1664 171.768 78.432 160.504 87.0352 162.002C95.6384 163.499 96.2768 165.672 96.2768 165.672C96.2768 165.672 83.3872 165.794 78.6144 176.882L71.1664 171.768Z" fill="#24285B"/>
<path d="M87.666 206.614C87.666 206.614 91.9752 211.751 106.909 212.777L112.427 219.784C112.427 219.784 98.3896 223.227 85.386 214.814C72.3824 206.401 87.666 206.614 87.666 206.614Z" fill="#24285B"/>
<path d="M56.2324 153.535L49.5824 146.65C48.184 145.206 47.462 143.252 47.5608 141.246C47.7204 137.742 48.4728 132.164 51.3684 127.969C55.9132 121.395 61.9704 118.91 63.4752 124.594C64.98 130.279 65.2916 123.53 68.9548 126.548C72.618 129.565 71.8656 131.336 68.9548 132.939C66.044 134.543 60.0096 136.853 59.4776 141.649C58.9456 146.444 63.4828 150.305 56.24 153.528L56.2324 153.535Z" fill="#24285B"/>
<path d="M125.514 171.532C125.514 171.532 126.996 161.28 136.937 162.275C146.878 163.263 143.245 165.802 139.232 165.992H139.202C137.53 166.318 136.238 167.572 135.706 169.191C135.12 170.985 133.502 173.318 129.223 174.792L125.514 171.54V171.532Z" fill="#F4A28C"/>
<path d="M251.879 124.982C265.785 124.982 277.058 121.324 277.058 116.812C277.058 112.3 265.785 108.642 251.879 108.642C237.973 108.642 226.7 112.3 226.7 116.812C226.7 121.324 237.973 124.982 251.879 124.982Z" fill="#24285B"/>
<path d="M288.861 47.5076C288.861 25.7032 269.982 8.30681 247.684 10.7616C230.804 12.6236 217.162 26.144 215.171 43.016C214.138 51.7484 216.159 59.9716 220.301 66.7508L251.887 118.499L283.313 67.0016C286.832 61.3396 288.868 54.6668 288.868 47.5152L288.861 47.5076ZM251.879 67.1308C241.893 67.1308 233.799 59.0368 233.799 49.0504C233.799 39.064 241.893 30.97 251.879 30.97C261.866 30.97 269.96 39.064 269.96 49.0504C269.96 59.0368 261.866 67.1308 251.879 67.1308Z" fill="#FFD200"/>
<path opacity="0.1" d="M333.298 208.118H252.312V249.212H333.298V208.118Z" fill="#000001"/>
<path d="M362.406 208.118H262.922V268.926H362.406V208.118Z" fill="#A5A5A5"/>
<path d="M285.205 244.059C285.205 244.059 283.647 252.556 290.472 251.408C297.297 250.253 294.044 246.643 293.071 241.984L285.205 244.059Z" fill="white"/>
<path d="M284.4 240.137L292.281 238.328C292.281 238.328 292.6 232.005 292.228 225.69C291.855 219.366 285.631 214.138 281.481 218.409C277.332 222.68 278.966 231.306 284.4 240.137Z" fill="white"/>
<path d="M299.326 251.864C299.326 251.864 294.842 258.172 300.816 259.821C306.789 261.47 305.52 257.306 306.5 253.156L299.326 251.856V251.864Z" fill="white"/>
<path d="M300.162 248.376L307.253 249.896C307.253 249.896 309.905 244.887 312.003 239.613C314.093 234.338 311.03 227.734 306.037 229.626C301.044 231.519 299.106 239.142 300.162 248.376Z" fill="white"/>
<path opacity="0.67" d="M350.284 230.318H326.283V236.991H350.284V230.318Z" fill="white"/>
<path opacity="0.31" d="M350.284 242.197H326.283V248.87H350.284V242.197Z" fill="white"/>
</svg>
