<svg width="380" height="380" viewBox="0 0 380 380" fill="none" xmlns="http://www.w3.org/2000/svg">
<path d="M22.42 226.632C24.776 225.264 187.568 323 189.088 322.164L362.9 222.528L194.788 127.148L22.42 226.632Z" fill="#77CC58"/>
<path d="M112.328 145.768V200.868C112.328 200.868 165.3 203.832 165.3 200.868V145.768" fill="#5FDD25"/>
<path d="M138.776 212.496C153.425 212.496 165.3 207.086 165.3 200.412C165.3 193.738 153.425 188.328 138.776 188.328C124.127 188.328 112.252 193.738 112.252 200.412C112.252 207.086 124.127 212.496 138.776 212.496Z" fill="#5FDD25"/>
<path d="M138.776 157.852C153.425 157.852 165.3 152.442 165.3 145.768C165.3 139.094 153.425 133.684 138.776 133.684C124.127 133.684 112.252 139.094 112.252 145.768C112.252 152.442 124.127 157.852 138.776 157.852Z" fill="#5FDD25"/>
<path opacity="0.2" d="M138.776 157.852C153.425 157.852 165.3 152.442 165.3 145.768C165.3 139.094 153.425 133.684 138.776 133.684C124.127 133.684 112.252 139.094 112.252 145.768C112.252 152.442 124.127 157.852 138.776 157.852Z" fill="black"/>
<path d="M122.284 155.192L122.436 155.268C123.5 155.648 124.488 155.952 125.552 156.18L118.408 95.836C118.408 95.836 116.888 95 114.684 96.52L122.056 154.964L122.284 155.192Z" fill="#E75A59"/>
<path d="M130.492 157.016L132.772 100.396C132.772 100.396 131.404 99.332 129.048 100.472L127.148 156.56C128.288 156.788 129.428 156.94 130.492 157.016Z" fill="#E75A59"/>
<path d="M138.776 157.852L146.072 98.8L160.816 106.552L154.812 156.18C149.644 157.7 144.248 158.308 138.776 157.852Z" fill="#EDAF24"/>
<path d="M168.492 68.704V153.064L192.736 166.972L220.172 150.784V66.348" fill="#E75A59"/>
<path d="M168.492 68.704L196.688 52.668L220.172 66.348L192.736 82.612L168.492 68.704Z" fill="#E75A59"/>
<path opacity="0.2" d="M192.736 82.612V166.972L220.172 150.784V66.348L192.736 82.612Z" fill="black"/>
<path d="M220.932 84.284L192.736 100.32V167.2L217.056 181.032L244.492 164.844V98.04L220.932 84.284Z" fill="#5FDD25"/>
<path opacity="0.49" d="M192.736 100.32L220.932 84.284L244.492 98.04L217.056 114.228L192.736 100.32Z" fill="white"/>
<path opacity="0.2" d="M217.056 114.228V181.032L244.492 164.844V98.04L217.056 114.228Z" fill="black"/>
<path d="M217.056 150.328V181.488L241.3 195.32L268.736 179.132V148.048" fill="#EDAF24"/>
<path d="M217.056 150.328L245.252 134.292L268.736 148.048L241.3 164.236L217.056 150.328Z" fill="#EDAF24"/>
<path opacity="0.2" d="M241.3 164.236V195.32L268.736 179.132V148.048L241.3 164.236Z" fill="black"/>
<path opacity="0.49" d="M168.492 68.704L196.688 52.668L220.172 66.348L192.736 82.612L168.492 68.704Z" fill="white"/>
<path opacity="0.49" d="M217.056 150.328L245.252 134.292L268.736 148.048L241.3 164.236L217.056 150.328Z" fill="white"/>
<path d="M308.028 210.824C308.028 210.824 308.18 217.36 307.344 217.74C306.508 218.12 301.644 224.58 301.264 225.568C300.124 228.912 306.356 230.432 308.56 229.292C310.764 228.152 314.488 221.844 314.792 220.248C315.096 218.652 316.92 208.848 316.92 208.848" fill="black"/>
<path d="M298.68 205.124C298.68 205.124 298.832 211.66 297.996 212.04C297.16 212.42 289.18 217.208 288.724 218.196C287.432 221.312 293.74 222.452 295.944 221.388C298.148 220.324 305.14 216.144 305.444 214.548C305.748 212.952 307.572 203.148 307.572 203.148" fill="black"/>
<path d="M323.836 142.12C323.836 142.12 328.548 149.492 327.864 156.104C327.18 162.716 320.644 215.156 316.388 214.624C312.132 214.092 309.624 214.7 307.42 209.152C307.42 209.152 300.276 210.748 297.996 205.124C297.996 205.124 299.744 155.876 303.772 148.2C307.8 140.524 323.836 142.12 323.836 142.12Z" fill="#963626"/>
<path d="M263.112 122.816C264.328 122.512 265.468 122.284 266.684 122.208C265.468 122.208 264.252 122.36 263.036 122.588C261.744 122.816 261.592 120.84 262.884 120.612L263.492 120.536C263.112 120.08 263.188 119.396 263.644 119.016C263.796 118.94 263.948 118.864 264.1 118.864C266.836 118.484 269.648 118.788 272.384 119.624C272.308 118.636 272.308 117.572 272.46 116.584C272.46 116.432 272.536 116.28 272.688 116.128C272.992 115.596 273.6 115.444 274.132 115.672C274.36 115.824 274.588 116.052 274.664 116.356C274.968 117.952 274.816 119.548 275.12 121.144C275.196 121.448 275.272 121.676 275.348 121.98C276.564 123.272 277.78 124.564 278.996 125.856C279.832 126.768 278.312 127.908 277.4 127.072C277.248 127.3 277.096 127.452 276.868 127.528L277.02 127.68C277.248 127.908 277.248 128.288 277.096 128.592L277.248 128.744C278.16 129.656 276.868 131.176 275.956 130.264L275.652 129.96C275.348 130.188 274.816 130.112 274.588 129.808C274.588 129.808 274.588 129.732 274.512 129.732L274.436 129.656C273.676 128.364 272.612 127.376 271.32 126.54L270.94 126.236C269.876 125.856 268.736 125.628 267.596 125.552C266.76 125.78 265.924 126.008 265.088 126.312C264.556 126.464 264.024 126.16 263.872 125.704C263.72 125.248 263.948 124.716 264.328 124.488L263.796 124.564C262.58 125.02 261.896 123.12 263.112 122.816Z" fill="#FFC388"/>
<path d="M263.34 120.232C264.632 120.08 266 120.004 267.292 120.08C267.596 120.08 267.672 120.612 267.292 120.612C266 120.536 264.632 120.612 263.34 120.764C263.036 120.764 263.036 120.232 263.34 120.232Z" fill="black"/>
<path d="M263.188 122.284C264.632 122.056 266 121.98 267.444 121.98C267.596 121.98 267.748 122.056 267.748 122.208C267.748 122.36 267.672 122.512 267.52 122.512H267.444C266 122.512 264.556 122.588 263.188 122.816C262.884 122.816 262.884 122.284 263.188 122.284Z" fill="black"/>
<path d="M268.812 122.892C270.408 122.436 272.08 122.74 273.372 123.728C273.676 123.88 273.296 124.26 273.068 124.108C271.928 123.196 270.408 122.968 268.964 123.348C268.812 123.424 268.66 123.348 268.584 123.196C268.508 123.196 268.584 123.044 268.812 122.892C268.736 122.968 268.736 122.968 268.812 122.892Z" fill="black"/>
<path d="M267.976 122.816C268.128 121.676 268.812 120.612 269.876 120.08C270.18 119.928 270.332 120.46 270.028 120.536C269.116 120.992 268.508 121.904 268.432 122.892C268.356 123.044 268.204 123.12 268.128 123.044C268.052 123.044 267.976 122.968 267.976 122.816Z" fill="black"/>
<path d="M263.872 124.108C264.936 123.652 266 123.348 267.14 123.196C267.292 123.196 267.444 123.272 267.444 123.424C267.444 123.576 267.368 123.728 267.216 123.728H267.14C266.076 123.88 265.012 124.108 264.024 124.564C263.796 124.716 263.568 124.26 263.872 124.108Z" fill="black"/>
<path d="M285.684 120.156L283.328 134.52C283.328 134.52 285.076 139.84 288.952 140.524C292.828 141.208 295.64 123.348 295.64 123.348" fill="#EDAF24"/>
<path d="M297.008 112.556C299.972 112.784 302.86 113.468 305.748 114.38C309.548 115.596 325.964 139.688 323.836 142.044C321.708 144.4 311.524 149.264 305.368 147.896C299.212 146.528 285 122.816 285.684 120.156C287.204 114 291.992 113.924 291.992 113.924" fill="#EDAF24"/>
<path d="M286.14 106.172C286.14 106.172 285.076 115.216 288.268 116.812C291.46 118.408 295.108 115.064 296.172 113.088C297.236 111.112 298.3 101.156 292.22 101.84C286.14 102.524 286.064 106.172 286.14 106.172Z" fill="#FFC388"/>
<path d="M285.912 100.168C288.42 99.332 291.308 97.432 295.792 100.32C300.276 103.208 301.568 111.416 296.248 113.392L295.26 110.428C295.716 109.82 295.944 109.06 295.868 108.3C295.792 107.312 295.032 106.628 294.044 106.628C293.968 106.628 293.892 106.628 293.816 106.628C293.284 106.248 292.828 105.64 292.524 105.032C291.612 103.208 290.624 104.12 289.332 105.716C288.04 107.312 285.228 107.768 283.784 106.78C282.34 105.792 282.72 101.232 285.912 100.168Z" fill="black"/>
<path d="M276.488 122.284C279.756 124.64 282.948 127.148 285.912 129.808L290.548 139.764C290.548 139.764 287.812 143.564 282.796 140.904C279.224 139.004 273.6 132.088 270.864 127.908C271.928 125.324 273.904 123.272 276.488 122.284Z" fill="#EDAF24"/>
<path d="M310.46 157.32C310.536 156.636 311.6 156.636 311.524 157.32L306.66 209C306.584 209.684 305.52 209.684 305.596 209L310.46 157.32Z" fill="black"/>
<path d="M294.044 139.004C294.044 139.004 299.364 134.596 299.364 132.62C299.364 130.644 296.628 116.508 301.188 115.444C305.748 114.38 309.472 125.02 310.764 131.328C312.056 137.636 297.084 149.264 297.084 149.264" fill="#EDAF24"/>
<path d="M274.36 88.996C271.244 86.792 266.608 87.096 263.492 89.3L272.992 196.536L283.784 195.548L274.36 88.996Z" fill="#963626"/>
<path d="M279.967 198.663C282.936 198.395 285.25 197.162 285.137 195.908C285.025 194.654 282.527 193.854 279.559 194.121C276.59 194.388 274.276 195.621 274.389 196.875C274.501 198.13 276.999 198.93 279.967 198.663Z" fill="#963626"/>
<path d="M283.86 196.232C283.86 196.232 282.644 193.648 278.312 194.18C273.98 194.788 272.992 196.688 272.992 196.688L279.528 217.056L283.86 196.232Z" fill="#FFB5A4"/>
<path d="M279.604 217.056L281.58 207.404C279.984 206.416 277.932 206.644 276.64 207.936L279.604 217.056Z" fill="#963626"/>
<path d="M284.696 150.024L279.908 150.556C279.908 150.556 276.032 149.72 275.12 151.24C274.892 151.62 278.996 152.228 278.996 152.228C278.996 152.228 273.068 153.748 273.448 154.964C273.828 156.18 277.704 158.384 278.464 158.612C279.224 158.84 286.672 152.912 286.672 152.912" fill="#FFC388"/>
<path d="M282.34 149.568C284.24 146.832 288.192 144.248 291.46 141.132C295.868 137.484 300.428 132.848 304 137.864C307.952 143.412 292.448 153.748 287.964 156.636C285.38 154.964 283.404 152.456 282.34 149.568Z" fill="#EDAF24"/>
<path d="M87.476 233.7V239.552C91.96 239.096 96.292 237.804 100.244 235.676C105.868 232.332 107.16 229.444 107.54 226.708C107.616 226.252 107.616 219.564 107.616 219.564" fill="#E75A59"/>
<path opacity="0.2" d="M87.476 233.7V239.552C91.96 239.096 96.292 237.804 100.244 235.676C105.868 232.332 107.16 229.444 107.54 226.708C107.616 226.252 107.616 219.564 107.616 219.564" fill="black"/>
<path d="M57.152 198.816V221.464L83.144 222.452L98.116 210.672V187.872" fill="#5FDD25"/>
<path opacity="0.2" d="M57.152 199.272V221.92L83.144 222.908L98.116 211.128V188.328" fill="black"/>
<path d="M83.372 198.588L82.916 219.564L98.116 208.24V187.872L83.372 198.588Z" fill="#5FDD25"/>
<path opacity="0.2" d="M83.372 199.044L82.916 220.02L98.116 208.696V188.328L83.372 199.044Z" fill="black"/>
<path d="M82.916 219.564L98.116 208.164C98.116 208.164 107.16 211.204 107.692 219.564C108.224 227.924 95.76 233.016 87.476 233.7L82.916 219.564Z" fill="#E75A59"/>
<path d="M98.116 187.872C93.328 186.048 88.312 185.136 83.22 185.136C69.616 185.136 58.444 191.14 57.152 198.816L83.372 198.588L98.116 187.872Z" fill="#5FDD25"/>
<path d="M87.932 222.604V239.552C80.712 240.464 73.34 239.4 66.728 236.436C59.204 232.94 57.836 228.836 57.152 225.796V207.784" fill="#EDAF24"/>
<path opacity="0.2" d="M87.932 222.604V239.552C80.712 240.464 73.34 239.4 66.728 236.436C59.204 232.94 57.836 228.836 57.152 225.796V207.784" fill="black"/>
<path d="M57.152 207.784H83.144L88.008 222.604C88.008 222.604 74.556 224.428 64.6 218.348C55.86 213.028 57.152 207.784 57.152 207.784Z" fill="#EDAF24"/>
<path d="M127.68 263.948L226.86 207.024C228.988 205.808 231.648 205.808 233.852 207.024L286.824 238.032C288.8 239.172 289.408 241.68 288.268 243.656C287.888 244.264 287.432 244.796 286.824 245.1L188.632 301.872C185.744 303.544 182.172 303.468 179.36 301.796L127.604 270.94C125.704 269.8 125.096 267.216 126.236 265.316C126.616 264.784 127.072 264.328 127.68 263.948Z" fill="#E75A59"/>
<path d="M127.68 259.464L226.86 202.54C228.988 201.324 231.648 201.324 233.852 202.54L286.824 233.548C288.8 234.688 289.408 237.196 288.268 239.172C287.888 239.78 287.432 240.312 286.824 240.616L188.632 297.388C185.744 299.06 182.172 298.984 179.36 297.312L127.604 266.456C125.704 265.316 125.096 262.732 126.236 260.832C126.616 260.3 127.072 259.844 127.68 259.464Z" fill="#FFB5A4"/>
<path d="M224.428 209.684C224.96 209.836 275.12 239.096 275.12 239.096L191.368 288.116L140.752 258.932L224.428 209.684Z" fill="white"/>
<path d="M169.784 283.48C170.392 283.1 170.62 282.34 170.24 281.732L170.164 281.656C169.48 280.896 168.644 280.288 167.732 279.832C166.896 279.3 165.984 278.844 165.148 278.312L158.384 274.436L152.836 271.244C152.076 270.788 151.24 270.712 150.404 270.94C149.796 271.168 149.34 271.472 148.96 272.004C148.656 272.536 148.808 273.296 149.34 273.6C149.416 273.6 149.416 273.676 149.492 273.676L159.676 279.604L164.084 282.188L166.668 283.708C167.428 284.164 168.416 284.24 169.252 283.936C169.48 283.784 169.632 283.708 169.784 283.48Z" fill="#E75A59"/>
<path d="M144.628 269.648C145.593 269.648 146.376 269.001 146.376 268.204C146.376 267.406 145.593 266.76 144.628 266.76C143.663 266.76 142.88 267.406 142.88 268.204C142.88 269.001 143.663 269.648 144.628 269.648Z" fill="#E75A59"/>
<path d="M157.776 257.488L193.648 277.932C194.256 278.236 194.94 278.008 195.244 277.4C195.548 276.868 195.32 276.184 194.864 275.88L158.992 255.436C158.384 255.132 157.7 255.36 157.396 255.968C157.092 256.5 157.32 257.108 157.776 257.488Z" fill="#E6E6E6"/>
<path d="M164.388 254.144L200.26 274.588C200.868 274.892 201.552 274.74 201.932 274.132C202.312 273.524 202.084 272.84 201.476 272.46L165.604 252.016C164.996 251.712 164.312 251.94 164.008 252.548C163.704 253.156 163.856 253.84 164.388 254.144Z" fill="#E6E6E6"/>
<path d="M170.848 250.268L206.72 270.712C207.328 271.016 208.012 270.788 208.316 270.18C208.62 269.648 208.392 268.964 207.936 268.66L172.064 248.216C171.456 247.912 170.772 248.14 170.468 248.748C170.164 249.28 170.316 249.964 170.848 250.268Z" fill="#E6E6E6"/>
<path d="M208.164 226.328L244.036 246.772C244.644 247.076 245.328 246.848 245.632 246.24C245.936 245.708 245.708 245.024 245.252 244.72L209.38 224.276C208.772 223.972 208.088 224.2 207.784 224.808C207.48 225.34 207.632 226.024 208.164 226.328Z" fill="#E6E6E6"/>
<path d="M215.764 223.212L251.636 243.656C252.244 243.96 252.928 243.732 253.232 243.124C253.536 242.592 253.308 241.908 252.852 241.604L216.98 221.16C216.372 220.856 215.688 221.084 215.384 221.692C215.08 222.224 215.308 222.908 215.764 223.212Z" fill="#E6E6E6"/>
<path d="M221.692 219.184L257.64 239.628C258.248 239.932 258.932 239.704 259.236 239.096C259.54 238.564 259.312 237.88 258.856 237.576L222.984 217.132C222.376 216.828 221.692 217.056 221.388 217.664C221.084 218.196 221.236 218.804 221.692 219.184Z" fill="#E6E6E6"/>
<path d="M182.096 242.744C182.628 243.048 216.296 262.504 216.296 262.504L233.928 252.016L200.412 232.332L182.096 242.744Z" fill="#E6E6E6"/>
<path d="M216.296 262.808L216.144 262.732C204.516 255.968 182.4 243.2 181.944 242.972L180.88 242.44H182.02L200.412 232.028L234.46 252.016L216.296 262.808ZM182.628 242.744C186.504 244.948 213.712 260.756 216.22 262.2L233.244 252.092L200.26 232.788L182.628 242.744Z" fill="#E6E6E6"/>
</svg>
