<svg width="380" height="380" viewBox="0 0 380 380" fill="none" xmlns="http://www.w3.org/2000/svg">
<path d="M104.956 283.48L58.672 258.096C69.312 241.832 70.148 232.484 71.896 219.64C77.748 178.296 118.712 151.924 150.556 130.188C153.216 128.288 156.028 126.54 158.916 124.944C162.26 123.12 171.684 117.496 174.192 122.664C176.548 127.68 170.696 136.724 167.732 140.372C169.708 137.484 171.836 134.748 174.116 132.164C174.876 131.176 175.864 130.492 177.004 130.112C179.132 129.656 181.184 131.632 181.564 133.836C181.944 136.04 180.956 138.168 179.968 140.144C177.612 144.856 174.648 149.188 171.152 153.14C173.508 150.48 182.172 140.524 181.944 150.632C181.792 156.94 179.132 163.02 174.572 167.428C176.548 165.68 178.752 164.084 181.032 162.716C181.716 162.184 182.476 162.032 183.312 162.108C184.224 162.412 184.68 163.4 184.832 164.312C186.276 170.772 182.704 175.408 180.272 180.88C178.372 185.136 177.232 189.24 174.8 193.344C165.984 208.316 156.864 218.728 146.756 232.864C144.248 236.436 105.108 283.556 104.956 283.48Z" fill="white"/>
<path d="M104.956 284.012C104.88 284.012 104.804 284.012 104.804 283.936L58.444 258.552C58.292 258.476 58.216 258.324 58.216 258.248C58.216 258.096 58.216 257.944 58.292 257.792C68.248 242.592 69.54 233.396 71.212 221.768L71.44 219.64C77.064 179.664 115.672 153.444 146.604 132.392L150.328 129.884C152.988 127.984 155.8 126.236 158.688 124.64L159.448 124.26C162.64 122.512 168.568 119.244 172.216 120.46C173.28 120.84 174.192 121.6 174.648 122.664C175.94 125.4 175.028 128.972 173.508 132.316L173.736 132.012C174.496 130.948 175.636 130.188 176.852 129.808C177.916 129.58 178.98 129.808 179.816 130.416C181.032 131.252 181.792 132.544 182.02 133.912C182.4 136.192 181.412 138.472 180.424 140.524C179.208 142.88 177.84 145.16 176.396 147.364C177.992 146.148 179.512 145.54 180.652 145.92C181.792 146.3 182.476 147.972 182.476 150.708C182.4 155.42 180.956 159.98 178.296 163.932C179.132 163.4 179.892 162.868 180.728 162.336C181.488 161.728 182.476 161.5 183.464 161.652C184.376 161.956 185.06 162.792 185.364 164.236C186.58 169.556 184.528 173.508 182.4 177.764C181.868 178.828 181.26 179.968 180.804 181.108C180.12 182.628 179.588 184.072 178.98 185.516C177.992 188.328 176.776 190.988 175.332 193.572C169.48 203.528 163.476 211.432 157.168 219.792C153.976 223.972 150.708 228.304 147.288 233.092C145.692 235.372 130.188 254.144 125.476 259.768C120.384 265.848 115.444 271.852 111.72 276.336C106.096 283.1 105.336 284.012 104.956 284.012ZM59.432 257.944L104.88 282.796C108.072 278.996 143.488 236.588 146.376 232.56C149.796 227.772 153.064 223.44 156.256 219.26C162.564 210.9 168.568 203.072 174.344 193.116C175.788 190.608 177.004 187.948 177.916 185.212C178.524 183.768 179.056 182.248 179.74 180.728C180.272 179.588 180.804 178.448 181.412 177.308C183.464 173.204 185.44 169.404 184.3 164.464C184.148 163.704 183.844 162.868 183.084 162.64C182.4 162.564 181.716 162.792 181.184 163.172C178.904 164.54 176.776 166.06 174.8 167.808C174.572 168.036 174.268 168.036 174.04 167.808C173.812 167.58 173.812 167.276 174.04 167.048C178.524 162.792 181.108 156.864 181.26 150.632C181.336 148.428 180.956 147.136 180.12 146.832C178.676 146.3 175.788 148.504 171.456 153.368L171.38 153.444C171.152 153.672 170.848 153.672 170.62 153.52C170.392 153.368 170.392 152.988 170.544 152.76C173.964 148.808 176.928 144.476 179.284 139.84C180.272 137.94 181.108 135.888 180.804 133.912C180.652 132.772 179.968 131.784 179.056 131.1C178.448 130.644 177.688 130.492 176.928 130.644C175.864 131.024 175.028 131.632 174.344 132.544C172.976 134.064 171.684 135.66 170.468 137.256C169.176 139.232 168.112 140.6 167.96 140.752C167.808 140.98 167.428 141.056 167.2 140.828C166.972 140.676 166.896 140.296 167.048 140.068C167.884 138.852 168.796 137.636 169.708 136.42C172.444 132.088 175.104 126.388 173.508 122.892C173.204 122.132 172.52 121.524 171.684 121.296C168.416 120.232 162.564 123.424 159.752 125.02L158.992 125.476C156.104 127.072 153.368 128.82 150.708 130.72L146.984 133.228C116.28 154.052 77.976 180.12 72.428 219.64L72.124 221.844C70.528 233.548 69.236 242.82 59.432 257.944Z" fill="#231F20"/>
<path d="M116.052 310.46L122.664 270.56C122.664 270.56 61.18 246.316 60.192 245.784C59.432 245.404 37.696 310.46 37.696 310.46H116.052Z" fill="#231F20"/>
<path d="M116.052 310.916H37.696C37.544 310.916 37.392 310.84 37.24 310.688C37.164 310.536 37.088 310.384 37.164 310.232C58.672 245.708 59.584 245.328 59.964 245.176C60.116 245.1 60.268 245.1 60.42 245.176C61.408 245.708 101.688 261.592 122.892 269.952C123.12 270.028 123.272 270.256 123.196 270.56L116.584 310.46C116.584 310.764 116.356 310.992 116.052 310.916ZM38.38 309.928H115.596L122.056 270.864C116.584 268.66 65.74 248.672 60.344 246.392C58.52 250.268 46.512 285.684 38.38 309.928Z" fill="#231F20"/>
<path d="M74.024 97.052L165.3 69.312C167.96 68.476 170.848 69.996 171.608 72.656L220.932 234.84C221.768 237.5 220.248 240.388 217.588 241.148L126.312 268.888C123.652 269.724 120.764 268.204 120.004 265.544L70.604 103.36C69.844 100.7 71.364 97.812 74.024 97.052Z" fill="#231F20"/>
<path d="M126.084 269.192C122.74 269.192 119.776 266.988 118.788 263.796L70.68 105.488C69.464 101.46 71.668 97.204 75.696 95.988C75.696 95.988 75.696 95.988 75.772 95.988L163.172 69.464C167.2 68.172 171.456 70.452 172.672 74.404C172.672 74.48 172.672 74.48 172.748 74.556L220.856 232.864C222.072 236.892 219.868 241.148 215.84 242.364C215.84 242.364 215.84 242.364 215.764 242.364L128.364 268.888C127.604 269.04 126.844 269.192 126.084 269.192ZM165.452 70.072C164.768 70.072 164.16 70.148 163.552 70.376L76.152 96.9C72.656 97.964 70.756 101.612 71.744 105.108L119.852 263.416C120.916 266.912 124.564 268.812 128.06 267.824L215.46 241.3C218.956 240.236 220.856 236.588 219.868 233.092L171.684 74.784C170.848 72.048 168.34 70.148 165.452 70.072Z" fill="#231F20"/>
<path d="M169.295 83.2428L78.9079 110.705L119.891 245.594L210.278 218.132L169.295 83.2428Z" fill="white"/>
<path d="M119.852 246.164C119.776 246.164 119.7 246.164 119.624 246.088C119.472 246.012 119.396 245.936 119.396 245.784L78.432 110.884C78.356 110.732 78.432 110.58 78.508 110.504C78.584 110.352 78.66 110.276 78.812 110.276L169.176 82.84C169.328 82.764 169.48 82.84 169.556 82.916C169.708 82.992 169.784 83.068 169.86 83.22L210.824 218.12C210.9 218.424 210.748 218.728 210.444 218.804L120.08 246.24C120.004 246.088 119.928 246.164 119.852 246.164ZM79.572 111.036L120.232 244.948L209.608 217.816L168.872 83.904L79.572 111.036Z" fill="#231F20"/>
<path d="M161.804 251.256C160.056 251.256 158.536 250.116 158.004 248.444L156.712 244.264C156.104 242.212 157.244 240.008 159.372 239.324L175.864 234.308C176.852 234.004 177.992 234.08 178.904 234.612C179.816 235.068 180.5 235.98 180.804 236.968L182.096 241.148C182.704 243.2 181.564 245.404 179.512 246.088L163.02 251.104C162.564 251.18 162.184 251.256 161.804 251.256ZM177.004 235.22C176.7 235.22 176.472 235.296 176.168 235.372L159.676 240.388C158.156 240.844 157.32 242.44 157.776 243.96L159.068 248.14C159.524 249.66 161.196 250.496 162.716 250.04L179.208 245.024C179.968 244.796 180.576 244.264 180.88 243.656C181.26 242.972 181.336 242.212 181.108 241.452L179.816 237.272C179.436 236.056 178.296 235.22 177.004 235.22Z" fill="#D1D3D4"/>
<path d="M101.764 97.508C101.536 97.508 101.308 97.356 101.232 97.128C101.156 96.824 101.308 96.52 101.612 96.444L130.264 87.78C130.568 87.704 130.872 87.856 130.948 88.084C131.024 88.312 130.872 88.692 130.644 88.768C130.644 88.768 130.644 88.768 130.568 88.768L101.916 97.508C101.84 97.508 101.764 97.508 101.764 97.508Z" fill="#D1D3D4"/>
<path d="M134.368 87.552C134.064 87.552 133.836 87.324 133.836 87.02C133.836 86.792 133.988 86.564 134.216 86.488L138.016 85.348C138.32 85.272 138.624 85.424 138.7 85.728C138.776 86.032 138.624 86.336 138.396 86.412L134.596 87.552C134.52 87.552 134.444 87.552 134.368 87.552Z" fill="#D1D3D4"/>
<path d="M97.356 131.556C100.798 131.556 103.588 128.766 103.588 125.324C103.588 121.882 100.798 119.092 97.356 119.092C93.9142 119.092 91.124 121.882 91.124 125.324C91.124 128.766 93.9142 131.556 97.356 131.556Z" fill="#D1D3D4"/>
<path d="M107.844 117.496C107.54 117.496 107.312 117.268 107.312 116.964C107.312 116.736 107.464 116.508 107.692 116.432L165.072 99.028C165.376 98.952 165.68 99.104 165.68 99.408C165.756 99.712 165.604 99.94 165.376 100.016L107.92 117.42L107.844 117.496Z" fill="#D1D3D4"/>
<path d="M109.288 122.284C109.06 122.284 108.832 122.132 108.756 121.904C108.68 121.6 108.832 121.296 109.06 121.22L166.364 103.816C166.668 103.74 166.972 103.892 167.048 104.12C167.124 104.424 166.972 104.728 166.668 104.804L109.44 122.284H109.288Z" fill="#D1D3D4"/>
<path d="M110.732 127.072C110.504 127.072 110.276 126.92 110.2 126.692C110.124 126.388 110.276 126.084 110.58 126.008L162.564 110.2C162.868 110.124 163.172 110.276 163.248 110.58C163.324 110.884 163.172 111.188 162.868 111.264L110.884 127.072C110.808 127.072 110.808 127.072 110.732 127.072Z" fill="#D1D3D4"/>
<path d="M123.044 232.104C122.74 232.104 122.512 231.876 122.512 231.572C122.512 231.344 122.664 231.116 122.892 231.04L199.728 207.708C200.032 207.632 200.336 207.784 200.412 208.012C200.488 208.316 200.336 208.62 200.108 208.696C200.108 208.696 200.108 208.696 200.032 208.696L123.272 232.028C123.12 232.104 123.12 232.104 123.044 232.104Z" fill="#D1D3D4"/>
<path d="M155.463 124.695L94.744 143.143L113.192 203.861L173.91 185.414L155.463 124.695Z" fill="#5FDD25"/>
<path d="M113.164 204.44C112.936 204.44 112.708 204.288 112.632 204.06L94.164 143.26C94.088 142.956 94.24 142.652 94.544 142.576L155.268 124.108C155.572 124.032 155.876 124.184 155.952 124.488L174.42 185.212C174.496 185.516 174.344 185.82 174.116 185.896L113.392 204.364L113.164 204.44ZM95.38 143.488L113.544 203.224L173.28 185.06L155.116 125.324L95.38 143.488Z" fill="#231F20"/>
<path d="M173.903 185.466L113.185 203.914L117.869 219.33L178.587 200.882L173.903 185.466Z" fill="white"/>
<path d="M117.876 219.868C117.8 219.868 117.724 219.868 117.648 219.792C117.496 219.716 117.42 219.64 117.42 219.488L112.708 204.06C112.632 203.756 112.784 203.452 113.088 203.376L173.812 184.908C174.116 184.832 174.42 184.984 174.496 185.288L179.208 200.716C179.284 200.868 179.208 201.02 179.132 201.096C179.056 201.248 178.98 201.324 178.828 201.324L118.104 219.792L117.876 219.868ZM113.848 204.212L118.256 218.652L177.992 200.488L173.584 186.048L113.848 204.212Z" fill="#231F20"/>
<path d="M121.524 206.796C121.296 206.796 121.068 206.644 120.992 206.416C120.916 206.112 121.068 205.808 121.296 205.732L168.112 191.52C168.416 191.444 168.72 191.596 168.796 191.9C168.872 192.204 168.72 192.508 168.416 192.584L121.676 206.72C121.676 206.796 121.6 206.796 121.524 206.796Z" fill="#D1D3D4"/>
<path d="M123.196 212.192C122.892 212.192 122.664 211.964 122.664 211.66C122.664 211.432 122.816 211.204 123.044 211.128L166.744 197.828C167.048 197.752 167.352 197.904 167.428 198.208C167.504 198.512 167.352 198.816 167.048 198.892L123.348 212.192H123.196Z" fill="#D1D3D4"/>
<path d="M119.396 182.932C119.168 182.932 118.94 182.78 118.864 182.552L111.34 157.7C111.264 157.548 111.34 157.396 111.416 157.32C111.492 157.168 111.568 157.092 111.72 157.092L149.112 145.768C149.264 145.692 149.416 145.768 149.492 145.844C149.644 145.92 149.72 145.996 149.72 146.148L157.244 171C157.32 171.152 157.244 171.304 157.168 171.38C157.092 171.532 157.016 171.608 156.864 171.684L119.472 183.008C119.548 182.932 119.472 182.932 119.396 182.932ZM112.556 157.928L119.776 181.716L156.18 170.696L148.96 146.908L112.556 157.928Z" fill="white"/>
<path d="M119.396 182.932C119.32 182.932 119.244 182.932 119.168 182.856C118.94 182.704 118.788 182.4 118.94 182.172V182.096L128.44 164.236C128.516 164.084 128.592 164.008 128.744 164.008C128.896 163.932 129.048 164.008 129.124 164.084L146.984 173.66C147.212 173.812 147.364 174.116 147.212 174.344C147.06 174.572 146.756 174.724 146.528 174.572L129.124 165.3L119.852 182.704C119.776 182.78 119.624 182.932 119.396 182.932Z" fill="white"/>
<path d="M142.12 172.064C142.044 172.064 141.968 172.064 141.816 171.988C141.588 171.836 141.436 171.532 141.588 171.304C141.588 171.304 141.588 171.304 141.588 171.228L146.148 163.172C146.3 162.944 146.604 162.868 146.832 162.944L155.876 166.82C156.18 166.972 156.256 167.276 156.18 167.504C156.104 167.732 155.724 167.884 155.496 167.808L146.832 164.084L142.5 171.684C142.5 171.988 142.348 172.064 142.12 172.064Z" fill="white"/>
<path d="M138.776 163.02C136.648 163.02 134.9 161.272 134.9 159.144C134.9 157.016 136.648 155.268 138.776 155.268C140.448 155.268 141.968 156.408 142.5 158.004C143.108 160.056 141.968 162.184 139.916 162.792C139.536 162.944 139.156 163.02 138.776 163.02ZM138.776 156.408C138.472 156.408 138.244 156.484 137.94 156.56C136.496 157.016 135.584 158.536 136.04 160.056C136.496 161.576 138.016 162.412 139.536 161.956C141.056 161.5 141.892 159.98 141.436 158.46C141.208 157.776 140.752 157.168 140.068 156.788C139.688 156.484 139.232 156.408 138.776 156.408Z" fill="white"/>
<path d="M220.125 105.003L159.407 123.451L177.855 184.169L238.573 165.722L220.125 105.003Z" fill="#5FDD25"/>
<path d="M177.84 184.756C177.764 184.756 177.688 184.756 177.612 184.68C177.46 184.604 177.384 184.528 177.384 184.376L158.916 123.652C158.84 123.348 158.992 123.044 159.296 122.968L220.02 104.5C220.172 104.424 220.324 104.5 220.4 104.576C220.552 104.652 220.628 104.728 220.628 104.88L239.096 165.68C239.172 165.984 239.02 166.288 238.716 166.364L177.992 184.756C177.916 184.756 177.916 184.756 177.84 184.756ZM160.056 123.88L178.22 183.616L237.956 165.452L219.792 105.716L160.056 123.88Z" fill="#231F20"/>
<path d="M238.565 165.772L177.847 184.22L182.531 199.636L243.249 181.188L238.565 165.772Z" fill="white"/>
<path d="M182.552 200.26C182.476 200.26 182.4 200.26 182.324 200.184C182.172 200.108 182.096 200.032 182.096 199.88L177.384 184.452C177.308 184.148 177.46 183.844 177.764 183.768L238.488 165.3C238.792 165.224 239.096 165.376 239.172 165.68L243.884 181.108C243.96 181.26 243.96 181.412 243.884 181.488C243.808 181.64 243.732 181.716 243.58 181.716L182.856 200.184C182.628 200.184 182.628 200.26 182.552 200.26ZM178.524 184.604L182.932 199.044L242.668 180.88L238.26 166.44L178.524 184.604Z" fill="#231F20"/>
<path d="M186.2 187.188C185.896 187.188 185.668 186.96 185.668 186.656C185.668 186.428 185.82 186.2 186.048 186.124L232.864 171.912C233.168 171.836 233.472 171.988 233.548 172.216C233.624 172.52 233.472 172.824 233.168 172.9L186.352 187.112L186.2 187.188Z" fill="#D1D3D4"/>
<path d="M187.796 192.584C187.568 192.584 187.34 192.432 187.264 192.204C187.188 191.9 187.34 191.596 187.644 191.52L225.34 180.12C225.644 180.044 225.948 180.196 226.024 180.424C226.1 180.728 225.948 181.032 225.644 181.108L187.948 192.584C187.948 192.584 187.872 192.584 187.796 192.584Z" fill="#D1D3D4"/>
<path d="M184.072 163.248C183.996 163.248 183.92 163.248 183.844 163.172C183.692 163.096 183.616 163.02 183.616 162.868L176.092 138.016C176.016 137.864 176.016 137.712 176.092 137.636C176.168 137.484 176.244 137.408 176.396 137.408L213.788 126.084C214.092 126.008 214.396 126.16 214.472 126.388L222.072 151.24C222.148 151.392 222.072 151.544 222.072 151.62C221.996 151.772 221.92 151.848 221.768 151.848L184.376 163.172C184.148 163.248 184.072 163.248 184.072 163.248ZM177.156 138.244L184.376 162.032L220.78 151.012L213.56 127.224L177.156 138.244Z" fill="white"/>
<path d="M184.072 163.248C183.996 163.248 183.92 163.248 183.844 163.172C183.616 163.02 183.464 162.716 183.616 162.488L193.116 144.628C193.192 144.476 193.268 144.4 193.42 144.4C193.572 144.4 193.724 144.4 193.8 144.476L211.66 154.052C211.888 154.204 212.04 154.508 211.888 154.736C211.736 155.04 211.432 155.116 211.128 154.964L193.8 145.616L184.528 163.02C184.452 163.172 184.224 163.248 184.072 163.248Z" fill="white"/>
<path d="M206.72 152.456C206.644 152.456 206.568 152.456 206.492 152.38C206.264 152.228 206.112 151.924 206.264 151.696L210.824 143.64C210.976 143.412 211.28 143.336 211.508 143.412L220.628 147.288C220.932 147.44 221.008 147.744 220.932 147.972C220.78 148.276 220.476 148.352 220.248 148.276L211.584 144.552L207.252 152.152C207.1 152.38 206.948 152.456 206.72 152.456Z" fill="white"/>
<path d="M203.376 143.412C201.248 143.412 199.5 141.664 199.5 139.536C199.5 137.408 201.248 135.66 203.376 135.66C205.048 135.66 206.568 136.8 207.024 138.396C207.632 140.448 206.492 142.576 204.44 143.184C204.136 143.336 203.756 143.412 203.376 143.412ZM203.376 136.724C201.856 136.724 200.564 137.94 200.564 139.536C200.564 141.056 201.78 142.348 203.376 142.348C204.972 142.348 206.188 141.132 206.188 139.536C206.188 139.232 206.112 139.004 206.036 138.7C205.732 137.56 204.668 136.724 203.376 136.724Z" fill="white"/>
<path d="M284.733 85.4052L224.014 103.853L242.462 164.572L303.18 146.124L284.733 85.4052Z" fill="#5FDD25"/>
<path d="M242.516 165.148C242.44 165.148 242.364 165.148 242.288 165.072C242.136 164.996 242.06 164.92 242.06 164.768L223.592 104.044C223.516 103.74 223.668 103.436 223.896 103.36L284.62 84.892C284.772 84.816 284.924 84.816 285 84.892C285.152 84.968 285.228 85.044 285.228 85.196L303.696 145.92C303.772 146.224 303.62 146.528 303.316 146.604L242.592 165.072L242.516 165.148ZM224.656 104.196L242.82 163.932L302.556 145.768L284.392 86.032L224.656 104.196Z" fill="#231F20"/>
<path d="M303.175 146.176L242.457 164.623L247.141 180.039L307.859 161.592L303.175 146.176Z" fill="white"/>
<path d="M247.152 180.576C246.924 180.576 246.696 180.424 246.62 180.196L241.908 164.768C241.832 164.464 241.984 164.16 242.212 164.084L302.936 145.616C303.24 145.54 303.544 145.692 303.62 145.996L308.332 161.424C308.332 161.576 308.332 161.728 308.332 161.804C308.256 161.956 308.18 162.032 308.028 162.032L247.304 180.5L247.152 180.576ZM243.124 164.996L247.532 179.436L307.268 161.272L302.86 146.832L243.124 164.996Z" fill="#231F20"/>
<path d="M250.8 167.504C250.572 167.504 250.344 167.352 250.268 167.124C250.192 166.82 250.344 166.516 250.648 166.44L297.464 152.228C297.768 152.152 298.072 152.304 298.148 152.532C298.224 152.836 298.072 153.14 297.844 153.216C297.844 153.216 297.844 153.216 297.768 153.216L250.952 167.428C250.876 167.504 250.876 167.504 250.8 167.504Z" fill="#D1D3D4"/>
<path d="M252.472 172.9C252.168 172.9 251.94 172.672 251.94 172.368C251.94 172.14 252.092 171.912 252.32 171.836L286.52 161.424C286.824 161.348 287.052 161.5 287.204 161.728C287.28 162.032 287.128 162.336 286.824 162.412L252.624 172.824C252.548 172.9 252.472 172.9 252.472 172.9Z" fill="#D1D3D4"/>
<path d="M248.672 143.64C248.444 143.64 248.216 143.488 248.14 143.26L240.616 118.408C240.54 118.256 240.616 118.104 240.616 118.028C240.692 117.876 240.768 117.8 240.92 117.8L278.312 106.4C278.616 106.324 278.92 106.476 278.996 106.78L286.52 131.632C286.52 131.784 286.52 131.936 286.52 132.012C286.444 132.164 286.368 132.24 286.216 132.24L248.824 143.64H248.672ZM241.832 118.636L249.052 142.424L285.456 131.404L278.236 107.616L241.832 118.636Z" fill="white"/>
<path d="M248.672 143.64C248.596 143.64 248.52 143.64 248.444 143.564C248.216 143.412 248.064 143.108 248.216 142.88L257.716 125.02C257.792 124.868 257.868 124.792 258.02 124.792C258.172 124.716 258.324 124.716 258.4 124.792L276.26 134.368C276.564 134.52 276.64 134.824 276.564 135.052C276.412 135.356 276.108 135.432 275.88 135.356C275.88 135.356 275.804 135.356 275.804 135.28L258.4 125.932L249.128 143.336C249.052 143.488 248.9 143.64 248.672 143.64Z" fill="white"/>
<path d="M271.396 132.848C271.32 132.848 271.244 132.848 271.092 132.772C270.864 132.62 270.788 132.316 270.864 132.088L275.424 124.032C275.576 123.804 275.88 123.728 276.108 123.804L285.228 127.68C285.532 127.832 285.608 128.136 285.532 128.364C285.38 128.668 285.076 128.744 284.848 128.668L276.184 124.944L271.852 132.544C271.776 132.696 271.548 132.848 271.396 132.848Z" fill="white"/>
<path d="M268.052 123.728C265.924 123.728 264.176 121.98 264.176 119.852C264.176 117.724 265.924 115.976 268.052 115.976C269.724 115.976 271.244 117.116 271.776 118.712C272.384 120.764 271.244 122.892 269.192 123.5C268.812 123.652 268.432 123.728 268.052 123.728ZM268.052 117.116C267.748 117.116 267.52 117.192 267.216 117.268C265.772 117.724 264.936 119.244 265.316 120.764C265.848 122.208 267.52 122.892 268.964 122.36C270.256 121.828 270.94 120.536 270.636 119.168C270.332 117.876 269.268 117.116 268.052 117.116Z" fill="white"/>
<path d="M320.188 253.46C320.188 253.46 295.64 192.812 279.224 171C276.944 168.036 273.904 167.352 271.624 168.644C268.964 170.24 268.432 175.94 268.432 175.94C268.432 175.94 261.896 171.608 258.628 172.216C255.36 172.824 254.6 177.84 254.6 177.84C254.6 177.84 247.532 175.028 244.416 177.384C241.3 179.74 240.92 184.3 240.92 184.3C240.92 184.3 204.82 151.62 200.792 148.808C196.764 145.996 188.936 150.024 192.28 155.572C194.408 159.068 212.344 179.208 218.196 185.592C224.048 191.976 237.424 209.228 238.716 214.092C240.008 218.956 240.996 224.504 231.116 224.58C221.236 224.656 212.268 225.72 207.708 229.064C203.148 232.408 199.956 237.652 202.008 238.868C204.06 240.084 235.752 241.224 248.672 247.38C261.592 253.536 277.096 275.12 277.096 275.12L320.188 253.46Z" fill="white"/>
<path d="M277.096 275.728C276.944 275.728 276.792 275.652 276.64 275.5C276.488 275.272 261.06 253.992 248.444 247.912C239.628 243.656 221.768 241.832 211.052 240.692C205.276 240.084 202.464 239.78 201.78 239.324C201.248 239.02 200.868 238.412 200.868 237.728C200.716 235.448 203.68 231.344 207.404 228.608C211.584 225.568 219.564 224.048 231.116 224.048C234.688 224.048 237.044 223.288 238.108 221.844C239.552 219.944 238.944 217.056 238.184 214.244C236.968 209.532 223.82 192.584 217.74 185.972C211.584 179.132 193.876 159.372 191.824 155.876C190.38 153.52 190.684 151.088 192.584 149.264C194.484 147.44 198.436 146.528 201.096 148.352C204.82 150.936 235.22 178.448 240.54 183.236C240.844 181.716 241.756 178.752 244.112 176.928C246.924 174.8 252.396 176.472 254.22 177.156C254.524 175.712 255.588 172.216 258.552 171.76C261.516 171.304 266.228 173.964 268.052 175.104C268.28 173.356 269.116 169.556 271.396 168.188C274.056 166.668 277.4 167.656 279.68 170.696C296.02 192.356 320.492 252.7 320.72 253.308C320.796 253.536 320.72 253.84 320.492 253.992L277.4 275.652C277.324 275.728 277.248 275.728 277.096 275.728ZM197.676 148.428C196.08 148.428 194.56 149.036 193.344 150.1C192.432 150.936 191.14 152.76 192.736 155.344C194.788 158.764 212.648 178.752 218.576 185.288C224.048 191.292 237.804 208.848 239.248 214.016C240.084 217.056 240.692 220.248 239.02 222.528C237.652 224.276 235.068 225.112 231.116 225.188C219.792 225.188 212.04 226.708 208.012 229.596C204.288 232.256 201.78 236.056 201.932 237.804C201.932 238.108 202.084 238.412 202.312 238.564C202.844 238.868 206.872 239.324 211.204 239.78C221.996 240.92 240.008 242.82 248.976 247.076C261.06 252.928 275.196 271.624 277.324 274.588L319.58 253.308C317.3 247.684 294.348 191.9 278.844 171.38C276.868 168.796 274.132 167.884 271.928 169.176C269.952 170.316 269.116 174.572 269.04 176.092C269.04 176.396 268.736 176.624 268.432 176.548C268.356 176.548 268.28 176.548 268.204 176.472C268.128 176.396 261.82 172.292 258.78 172.824C255.892 173.356 255.208 177.916 255.208 177.992C255.208 178.144 255.056 178.296 254.98 178.372C254.828 178.448 254.676 178.448 254.524 178.372C254.448 178.372 247.684 175.712 244.796 177.84C241.908 179.968 241.528 184.376 241.452 184.376C241.452 184.68 241.148 184.908 240.844 184.832C240.692 184.832 240.616 184.756 240.54 184.68C240.16 184.376 204.44 152 200.488 149.264C199.652 148.732 198.664 148.428 197.676 148.428Z" fill="#231F20"/>
<path d="M342.304 310.46C336.832 293.74 320.036 239.932 319.2 240.312C318.288 240.768 265.772 265.544 265.772 265.544L268.964 310.46H342.304Z" fill="#231F20"/>
<path d="M342.304 310.916H268.964C268.66 310.916 268.432 310.688 268.432 310.46L265.24 265.544C265.24 265.316 265.316 265.088 265.544 265.012C267.672 264.024 317.984 240.16 318.972 239.78C319.124 239.704 319.276 239.704 319.428 239.78C320.188 240.084 322.544 246.924 335.844 288.648C338.732 297.616 341.164 305.368 342.76 310.232C342.836 310.384 342.76 310.536 342.684 310.688C342.684 310.84 342.532 310.992 342.304 310.916ZM269.496 309.928H341.62C340.024 305.064 337.668 297.616 334.932 289.028C328.852 270.028 320.644 244.264 319.048 240.996C314.336 243.2 270.636 263.872 266.38 265.924L269.496 309.928Z" fill="#231F20"/>
<path d="M68.172 239.02C68.172 239.02 77.672 167.428 85.88 159.752C95.684 150.632 104.576 144.476 106.172 149.644C107.768 154.812 109.288 163.552 95.988 173.28L97.964 190.684C97.964 190.684 111.112 199.728 104.272 228.38" fill="white"/>
<path d="M68.172 239.476C67.868 239.476 67.64 239.172 67.716 238.944C68.096 235.98 77.368 167.124 85.576 159.372C95 150.556 101.46 146.528 104.576 147.364C105.564 147.668 106.4 148.428 106.628 149.492C110.352 161.348 103.208 168.568 96.444 173.508L98.344 190.38C100.016 191.672 111.112 201.324 104.652 228.456C104.576 228.684 104.348 228.912 104.12 228.836C103.892 228.76 103.664 228.532 103.74 228.304V228.228C110.428 200.184 97.736 191.14 97.66 190.988C97.508 190.912 97.508 190.76 97.432 190.684L95.456 173.28C95.456 173.128 95.532 172.9 95.684 172.824C108.148 163.704 107.54 155.648 105.716 149.72C105.564 149.036 105.032 148.428 104.348 148.276C101.612 147.516 95.152 151.772 86.26 160.056C78.28 167.504 68.78 238.336 68.628 239.02C68.628 239.324 68.4 239.476 68.172 239.476Z" fill="#231F20"/>
</svg>
